<svg preserveAspectRatio="none" width="100%" height="100%" overflow="visible" style="display: block;" viewBox="0 0 30.642 30" fill="none" xmlns="http://www.w3.org/2000/svg">
<g id="Group">
<g id="Vector">
</g>
<path id="Vector_2" d="M9.64286 18.4804H8.85286L8.78486 17.6324C8.47886 18.2314 7.79086 18.6134 6.95886 18.6134C5.25186 18.6134 4.13086 17.2914 4.13086 15.5374C4.13086 13.7824 5.25186 12.4434 7.03486 12.4434C8.40286 12.4434 9.33686 13.2334 9.62586 14.5144L8.28386 14.5724C8.12286 13.8984 7.68986 13.5074 7.00986 13.5074C5.94786 13.5074 5.45586 14.3814 5.45586 15.5374C5.45586 16.6844 5.95686 17.5494 7.00986 17.5494C7.79086 17.5494 8.23286 17.0584 8.33486 16.3354H7.00186V15.4044H9.64286V18.4804ZM12.4059 12.5764C14.3599 12.5764 15.4559 13.6414 15.4559 15.5374C15.4559 17.4244 14.3769 18.4804 12.4569 18.4804H10.3249V12.5764H12.4059ZM11.6159 17.4164H12.4059C13.5779 17.4164 14.1389 16.8094 14.1389 15.5284C14.1389 14.2484 13.5779 13.6414 12.4059 13.6414H11.6159V17.4164ZM18.3779 12.5764C19.8219 12.5764 20.6969 13.3084 20.6969 14.5054C20.6969 15.7034 19.8219 16.4434 18.3779 16.4434H17.2569V18.4804H15.9659V12.5764H18.3779ZM17.2569 15.3794H18.3019C18.9809 15.3794 19.3719 15.0794 19.3719 14.5054C19.3719 13.9324 18.9809 13.6414 18.3019 13.6414H17.2569V15.3794ZM23.9669 12.5764C25.2159 12.5764 26.1329 13.2084 26.1329 14.3474C26.1329 15.0964 25.6919 15.6034 25.0379 15.7694C25.6829 15.8444 25.9889 16.1444 26.0399 16.7844L26.1929 18.4804H24.8929L24.7739 17.0004C24.7319 16.4854 24.4519 16.3184 23.7469 16.3184H22.6169V18.4804H21.3259V12.5764H23.9669ZM22.6169 15.2624H23.7809C24.4429 15.2624 24.8079 14.9714 24.8079 14.4554C24.8079 13.9324 24.4519 13.6414 23.7809 13.6414H22.6169V15.2624Z" fill="var(--fill-0, white)"/>
<path id="Vector_3" d="M15.431 1.5L15.879 2.261L16.798 2.421L16.155 3.051L16.276 3.911L15.431 3.539L14.585 3.911L14.705 3.051L14.062 2.421L14.982 2.261L15.431 1.5ZM9.959 3.107L10.407 3.869L11.326 4.028L10.684 4.658L10.804 5.518L9.959 5.146L9.114 5.518L9.234 4.658L8.59 4.028L9.511 3.869L9.959 3.107ZM5.581 6.589L6.03 7.351L6.949 7.51L6.306 8.14L6.427 9L5.581 8.628L4.736 9L4.856 8.14L4.213 7.51L5.133 7.351L5.581 6.589ZM25.28 6.589L25.728 7.351L26.647 7.51L26.005 8.14L26.125 9L25.28 8.628L24.434 9L24.555 8.14L23.912 7.51L24.832 7.351L25.28 6.589ZM20.902 3.107L21.351 3.869L22.27 4.028L21.627 4.658L21.748 5.518L20.902 5.146L20.057 5.518L20.177 4.658L19.534 4.028L20.454 3.869L20.902 3.107ZM15.431 25.875L15.879 26.636L16.798 26.796L16.155 27.426L16.276 28.285L15.431 27.913L14.585 28.285L14.705 27.426L14.062 26.796L14.982 26.636L15.431 25.875ZM9.959 24.268L10.407 25.029L11.326 25.189L10.684 25.819L10.804 26.678L9.959 26.307L9.114 26.678L9.234 25.819L8.59 25.189L9.511 25.029L9.959 24.268ZM5.581 20.785L6.03 21.547L6.949 21.706L6.306 22.336L6.427 23.196L5.581 22.825L4.736 23.196L4.856 22.336L4.213 21.706L5.133 21.547L5.581 20.785ZM25.28 20.785L25.728 21.547L26.647 21.706L26.005 22.336L26.125 23.196L25.28 22.825L24.434 23.196L24.555 22.336L23.912 21.706L24.832 21.547L25.28 20.785ZM20.902 24.268L21.351 25.029L22.27 25.189L21.627 25.819L21.748 26.678L20.902 26.307L20.057 26.678L20.177 25.819L19.534 25.189L20.454 25.029L20.902 24.268Z" fill="var(--fill-0, white)"/>
</g>
</svg>
