<svg preserveAspectRatio="none" width="100%" height="100%" overflow="visible" style="display: block;" viewBox="0 0 32.499 18.62" fill="none" xmlns="http://www.w3.org/2000/svg">
<g id="03" clip-path="url(#clip0_0_4)">
<path id="Vector" d="M0 7.544L2.895 0.166H4.929L7.824 7.544H6.037L5.45 5.974H2.363L1.775 7.544H0ZM2.849 4.676H4.975L3.912 1.828L2.849 4.676ZM8.492 0.166H10.211V7.544H8.492V0.166ZM18.328 4.883C18.001 6.671 16.757 7.71 14.834 7.71C12.46 7.71 10.969 6.057 10.969 3.865C10.969 1.673 12.46 0 14.834 0C16.678 0 17.944 0.998 18.293 2.701L16.508 2.774C16.304 1.85 15.682 1.33 14.801 1.33C13.387 1.33 12.731 2.421 12.731 3.865C12.731 5.299 13.399 6.38 14.801 6.38C15.739 6.38 16.349 5.819 16.53 4.821L18.328 4.883ZM22.247 0.166C24.169 0.166 25.334 1.08 25.334 2.577C25.334 4.073 24.169 4.998 22.247 4.998H20.754V7.544H19.037V0.166H22.247ZM20.754 3.668H22.146C23.049 3.668 23.57 3.294 23.57 2.577C23.57 1.86 23.049 1.496 22.146 1.496H20.754V3.668ZM24.677 7.544L27.571 0.166H29.606L32.499 7.544H30.714L30.125 5.974H27.039L26.452 7.544H24.677ZM27.526 4.676H29.651L28.589 1.828L27.526 4.676ZM3.233 15.949C3.38 16.738 3.991 17.258 4.997 17.258C5.765 17.258 6.286 16.978 6.274 16.438C6.264 15.897 5.765 15.586 4.511 15.306C2.77 14.92 1.65 14.276 1.65 13.092C1.65 11.751 2.871 10.91 4.703 10.91C6.489 10.91 7.71 11.917 7.902 13.404L6.183 13.487C6.093 12.708 5.505 12.219 4.657 12.219C3.912 12.219 3.38 12.572 3.415 13.113C3.437 13.736 4.228 13.944 5.087 14.142C6.885 14.505 8.027 15.211 8.027 16.386C8.027 17.788 6.682 18.579 4.951 18.579C2.995 18.579 1.617 17.581 1.504 16.022L3.233 15.949ZM12.511 18.62C10.07 18.62 8.611 17.144 8.611 14.775C8.611 12.385 10.07 10.91 12.511 10.91C14.953 10.91 16.423 12.385 16.423 14.775C16.423 17.144 14.953 18.62 12.511 18.62ZM10.386 14.775C10.386 16.354 11.178 17.29 12.511 17.29C13.868 17.29 14.648 16.354 14.648 14.775C14.648 13.185 13.868 12.24 12.511 12.24C11.178 12.24 10.386 13.185 10.386 14.775ZM24.251 15.793C23.924 17.581 22.68 18.62 20.757 18.62C18.383 18.62 16.893 16.968 16.893 14.775C16.893 12.583 18.383 10.91 20.757 10.91C22.601 10.91 23.867 11.908 24.217 13.611L22.431 13.684C22.228 12.76 21.605 12.24 20.724 12.24C19.31 12.24 18.655 13.331 18.655 14.775C18.655 16.209 19.322 17.29 20.724 17.29C21.662 17.29 22.273 16.729 22.453 15.731L24.251 15.793ZM24.901 13.424C25.037 11.97 26.236 10.91 28.011 10.91C29.695 10.91 30.905 11.856 30.905 13.154C30.905 14.287 29.921 14.942 28.825 15.524C28.383 15.752 26.982 16.52 26.936 17.124H30.927V18.454H24.846C24.846 16.292 26.169 15.306 27.807 14.453C28.62 13.996 29.141 13.611 29.141 13.133C29.141 12.614 28.677 12.24 28.011 12.24C27.287 12.24 26.812 12.697 26.666 13.518L24.901 13.424Z" fill="var(--fill-0, white)"/>
</g>
<defs>
<clipPath id="clip0_0_4">
<rect width="32.499" height="18.62" fill="white"/>
</clipPath>
</defs>
</svg>
