<svg preserveAspectRatio="none" width="100%" height="100%" overflow="visible" style="display: block;" viewBox="0 0 1440 187.82" fill="none" xmlns="http://www.w3.org/2000/svg">
<g id="DeployBuddy">
<path id="Vector" d="M1337.59 187.82H1321.72V165.908H1343.41C1353.25 165.908 1357.27 163.224 1360.62 155.622L1363.31 149.809L1308.53 38.6817H1335.58L1363.98 97.7109L1374.93 124.319H1376.72L1387.23 97.4873L1413.39 38.6817H1440L1382.09 161.883C1372.92 181.783 1360.4 187.82 1337.59 187.82Z" fill="url(#paint0_linear_0_12)"/>
<path id="Vector_2" d="M1227.62 152.045C1192.51 152.045 1173.06 128.567 1173.06 94.3574C1173.06 59.7001 1192.29 36.4462 1226.05 36.4462C1252.43 36.4462 1267.42 50.0855 1271.89 68.8675H1273.23V0.000117649H1297.38V149.809H1275.24V117.835H1273.68C1268.98 139.971 1252.66 152.045 1227.62 152.045ZM1197.43 94.3574C1197.43 120.965 1211.07 129.909 1234.99 129.909C1258.7 129.909 1273.23 118.729 1273.23 95.4754V93.6866C1273.23 69.9855 1259.37 58.3585 1234.55 58.3585C1211.29 58.3585 1197.43 67.5259 1197.43 94.3574Z" fill="url(#paint1_linear_0_12)"/>
<path id="Vector_3" d="M1086.56 152.045C1051.45 152.045 1032 128.567 1032 94.3574C1032 59.7001 1051.23 36.4462 1084.99 36.4462C1111.38 36.4462 1126.36 50.0855 1130.83 68.8675H1132.17V0.000117649H1156.32V149.809H1134.18V117.835H1132.62C1127.92 139.971 1111.6 152.045 1086.56 152.045ZM1056.37 94.3574C1056.37 120.965 1070.01 129.909 1093.94 129.909C1117.64 129.909 1132.17 118.729 1132.17 95.4754V93.6866C1132.17 69.9855 1118.31 58.3585 1093.49 58.3585C1070.24 58.3585 1056.37 67.5259 1056.37 94.3574Z" fill="url(#paint2_linear_0_12)"/>
<path id="Vector_4" d="M945.22 152.045C913.916 152.045 898.712 131.25 898.712 105.537V38.6817H922.637V99.0525C922.637 119.847 932.251 130.356 955.729 130.356C980.324 130.356 991.728 117.834 991.728 93.6862V38.6817H1015.65V149.809H993.516V115.375H992.175C988.597 134.157 973.84 152.045 945.22 152.045Z" fill="url(#paint3_linear_0_12)"/>
<path id="Vector_5" d="M835.224 149.809H748.245V0.000117649H832.093C860.714 0.000117649 877.93 13.1922 877.93 36.8934C877.93 54.5574 868.092 67.7495 845.285 70.4327V71.9979C870.775 74.9046 883.297 88.7675 883.297 108.444C883.297 134.157 866.08 149.809 835.224 149.809ZM772.17 21.6889V62.8304H828.739C845.509 62.8304 854.006 56.3462 854.006 42.2597C854.006 28.1731 846.18 21.6889 829.41 21.6889H772.17ZM772.17 82.7304V128.12H832.54C850.428 128.12 859.148 121.412 859.148 105.09C859.148 89.4383 850.205 82.7304 832.54 82.7304H772.17Z" fill="url(#paint4_linear_0_12)"/>
<path id="Vector_6" d="M635.146 187.82H619.27V165.908H640.959C650.797 165.908 654.822 163.224 658.176 155.622L660.859 149.809L606.078 38.6817H633.133L661.53 97.7109L672.486 124.319H674.275L684.784 97.4873L710.944 38.6817H737.552L679.641 161.883C670.474 181.783 657.952 187.82 635.146 187.82Z" fill="url(#paint5_linear_0_12)"/>
<path id="Vector_7" d="M537.798 152.045C500.904 152.045 476.085 128.568 476.085 94.3575C476.085 59.7002 500.904 36.4463 537.798 36.4463C574.915 36.4463 599.734 59.7002 599.734 94.3575C599.734 128.568 574.915 152.045 537.798 152.045ZM537.798 130.58C564.853 130.58 576.032 117.835 576.032 94.3575C576.032 70.6564 564.853 57.6878 537.798 57.6878C510.966 57.6878 499.786 70.6564 499.786 94.3575C499.786 117.835 510.966 130.58 537.798 130.58Z" fill="url(#paint6_linear_0_12)"/>
<path id="Vector_8" d="M458.643 149.809H434.495V0.000117649H458.643V149.809Z" fill="url(#paint7_linear_0_12)"/>
<path id="Vector_9" d="M317.586 187.82H293.438V38.6822H315.574V69.5384H317.586C322.058 48.9676 337.71 36.4463 363.87 36.4463C398.304 36.4463 417.757 59.9238 417.757 94.3575C417.757 128.791 398.751 152.045 364.094 152.045C339.051 152.045 322.952 138.853 318.48 118.506H317.586V187.82ZM317.586 96.1463C317.586 118.953 332.12 130.133 355.821 130.133C379.745 130.133 393.608 120.965 393.608 94.3575C393.608 67.526 379.522 58.5822 356.268 58.5822C331.449 58.5822 317.586 70.2092 317.586 94.1339V96.1463Z" fill="url(#paint8_linear_0_12)"/>
<path id="Vector_10" d="M217.887 152.045C181.44 152.045 157.516 131.474 157.516 94.3575C157.516 59.7002 181.217 36.4463 217.439 36.4463C251.873 36.4463 275.351 55.4519 275.351 89.2148C275.351 93.2395 275.127 96.3699 274.456 99.7238H180.099C180.993 121.189 191.502 132.592 217.216 132.592C240.47 132.592 250.084 124.99 250.084 111.798V110.009H274.233V112.022C274.233 135.723 250.979 152.045 217.887 152.045ZM216.992 55.4519C192.397 55.4519 181.664 66.4081 180.323 86.3081H252.544V85.8609C252.544 65.2901 240.693 55.4519 216.992 55.4519Z" fill="url(#paint9_linear_0_12)"/>
<path id="Vector_11" d="M68.1966 149.809H0V0H68.1966C114.704 0 143.995 28.6202 143.995 74.9045C143.995 121.189 114.704 149.809 68.1966 149.809ZM68.1966 21.6888H23.9247V128.12H68.1966C102.854 128.12 118.506 113.363 118.506 74.9045C118.506 36.4461 102.854 21.6888 68.1966 21.6888Z" fill="url(#paint10_linear_0_12)"/>
</g>
<defs>
<linearGradient id="paint0_linear_0_12" x1="1374.26" y1="38.6817" x2="1388.02" y2="246.22" gradientUnits="userSpaceOnUse">
<stop stop-color="#000120"/>
<stop offset="1" stop-color="#03125D"/>
</linearGradient>
<linearGradient id="paint1_linear_0_12" x1="1235.22" y1="0.000118019" x2="1250.33" y2="211.433" gradientUnits="userSpaceOnUse">
<stop stop-color="#000120"/>
<stop offset="1" stop-color="#03125D"/>
</linearGradient>
<linearGradient id="paint2_linear_0_12" x1="1094.16" y1="0.000118019" x2="1109.27" y2="211.433" gradientUnits="userSpaceOnUse">
<stop stop-color="#000120"/>
<stop offset="1" stop-color="#03125D"/>
</linearGradient>
<linearGradient id="paint3_linear_0_12" x1="957.182" y1="38.6817" x2="966.127" y2="196.622" gradientUnits="userSpaceOnUse">
<stop stop-color="#000120"/>
<stop offset="1" stop-color="#03125D"/>
</linearGradient>
<linearGradient id="paint4_linear_0_12" x1="815.771" y1="0.000118014" x2="829.283" y2="208.511" gradientUnits="userSpaceOnUse">
<stop stop-color="#000120"/>
<stop offset="1" stop-color="#03125D"/>
</linearGradient>
<linearGradient id="paint5_linear_0_12" x1="671.815" y1="38.6817" x2="685.569" y2="246.22" gradientUnits="userSpaceOnUse">
<stop stop-color="#000120"/>
<stop offset="1" stop-color="#03125D"/>
</linearGradient>
<linearGradient id="paint6_linear_0_12" x1="537.909" y1="36.4463" x2="546.708" y2="197.537" gradientUnits="userSpaceOnUse">
<stop stop-color="#000120"/>
<stop offset="1" stop-color="#03125D"/>
</linearGradient>
<linearGradient id="paint7_linear_0_12" x1="446.569" y1="0.000118014" x2="513.646" y2="185.076" gradientUnits="userSpaceOnUse">
<stop stop-color="#000120"/>
<stop offset="1" stop-color="#03125D"/>
</linearGradient>
<linearGradient id="paint8_linear_0_12" x1="355.597" y1="36.4463" x2="370.572" y2="246.956" gradientUnits="userSpaceOnUse">
<stop stop-color="#000120"/>
<stop offset="1" stop-color="#03125D"/>
</linearGradient>
<linearGradient id="paint9_linear_0_12" x1="216.433" y1="36.4463" x2="225.663" y2="197.489" gradientUnits="userSpaceOnUse">
<stop stop-color="#000120"/>
<stop offset="1" stop-color="#03125D"/>
</linearGradient>
<linearGradient id="paint10_linear_0_12" x1="71.9977" y1="3.64542e-07" x2="84.6775" y2="208.616" gradientUnits="userSpaceOnUse">
<stop stop-color="#000120"/>
<stop offset="1" stop-color="#03125D"/>
</linearGradient>
</defs>
</svg>
