<svg preserveAspectRatio="none" width="100%" height="100%" overflow="visible" style="display: block;" viewBox="0 0 24.514 24" fill="none" xmlns="http://www.w3.org/2000/svg">
<g id="01" clip-path="url(#clip0_0_6)">
<path id="Vector" d="M24.514 12.012C24.507 18.639 19.014 24.006 12.245 24C5.48401 23.994 0.0050067 18.629 6.69752e-06 12.009C-0.0069933 5.383 5.47401 0.006 12.241 0H12.268C19.038 0.006 24.52 5.383 24.514 12.012ZM16.367 18.16L16.748 16.752H16.906C17.021 16.75 17.135 16.751 17.249 16.754C17.417 16.74 17.585 16.75 17.75 16.783C17.635 17.366 17.49 17.944 17.315 18.514C17.456 18.59 17.598 18.664 17.738 18.739C18.047 18.901 18.351 19.06 18.645 19.237C18.943 19.419 19.236 19.61 19.523 19.81C19.646 19.893 19.768 19.976 19.891 20.057C24.86 15.599 24.55 8.016 19.871 3.931C19.082 4.539 18.222 5.054 17.308 5.464C17.482 6.067 17.647 6.643 17.756 7.238H16.739L16.68 7.006C16.64 6.848 16.601 6.695 16.558 6.542C16.505 6.304 16.435 6.071 16.346 5.844C13.694 6.764 10.799 6.762 8.14801 5.84L7.76501 7.251H7.26301C7.13901 7.25 7.01501 7.249 6.87701 7.246L6.73501 7.244L7.19701 5.459C6.28601 5.051 5.42801 4.536 4.64201 3.927C-0.295993 8.336 -0.0879931 15.919 4.64201 20.067C5.43301 19.458 6.29501 18.943 7.20901 18.531C7.02601 17.948 6.87401 17.357 6.75501 16.759H7.77001L8.14801 18.161C10.806 17.236 13.708 17.236 16.366 18.16H16.367ZM14.722 2.489C14.381 2.026 13.951 1.632 13.456 1.329C12.766 0.891 11.884 0.867 11.17 1.267C10.711 1.519 10.306 1.856 9.97801 2.26C9.45101 2.898 9.02201 3.607 8.70301 4.366C8.65301 4.48 8.60501 4.596 8.55501 4.718L8.48001 4.9C10.915 5.755 13.577 5.758 16.014 4.907C16.008 4.868 15.999 4.83 15.989 4.792C15.678 3.97 15.251 3.196 14.722 2.489ZM8.50701 19.148C8.51301 19.17 8.52001 19.192 8.52801 19.214C8.81901 19.976 9.20701 20.698 9.68401 21.364C9.99601 21.804 10.378 22.192 10.816 22.514C11.735 23.17 12.732 23.179 13.66 22.539C13.978 22.317 14.264 22.054 14.514 21.76C15.148 20.992 15.648 20.126 15.993 19.198C16.002 19.162 16.009 19.126 16.012 19.089C13.58 18.242 10.924 18.243 8.49201 19.092C8.49701 19.11 8.50301 19.129 8.50701 19.147V19.148ZM17.003 19.49L16.748 20.005C16.56 20.387 16.374 20.763 16.176 21.131C15.879 21.662 15.527 22.162 15.124 22.622C16.564 22.268 17.913 21.625 19.088 20.734C18.443 20.243 17.743 19.826 17.003 19.49ZM7.76701 20.008C7.68301 19.836 7.59901 19.663 7.51201 19.489C6.77001 19.826 6.07101 20.244 5.42501 20.734C6.60401 21.626 7.95701 22.27 9.40101 22.627C8.99401 22.172 8.63901 21.674 8.34301 21.143C8.14101 20.772 7.95501 20.392 7.76701 20.008ZM19.056 3.239C17.888 2.359 16.546 1.723 15.115 1.372C15.941 2.298 16.507 3.364 16.966 4.506C17.507 4.327 18.867 3.503 19.056 3.239ZM5.43701 3.256C5.85701 3.638 7.15701 4.402 7.55401 4.498C7.97901 3.365 8.59701 2.311 9.38101 1.38C7.94901 1.733 6.60501 2.371 5.43701 3.256ZM19.882 14.966C19.406 15.15 18.902 15.254 18.391 15.272C17.795 15.318 17.197 15.255 16.625 15.085C15.389 14.697 14.649 13.882 14.461 12.611C14.367 12.032 14.405 11.44 14.571 10.877C14.822 10.019 15.474 9.329 16.328 9.017C17.061 8.744 17.85 8.649 18.629 8.741C19.075 8.77 19.514 8.874 19.925 9.047C20.9 9.441 21.58 10.322 21.701 11.347C21.722 11.498 21.737 11.65 21.747 11.803L21.764 12.011C21.77 12.569 21.643 13.122 21.394 13.624C21.074 14.237 20.536 14.714 19.882 14.966ZM19.273 11.119C19.247 10.786 19.156 10.461 19.001 10.163C18.831 9.831 18.478 9.626 18.099 9.639C17.712 9.62 17.35 9.824 17.171 10.16C17.046 10.394 16.964 10.648 16.93 10.91C16.83 11.556 16.818 12.212 16.894 12.86C16.918 13.158 16.99 13.45 17.109 13.726C17.273 14.1 17.645 14.346 18.061 14.355C18.477 14.363 18.86 14.133 19.04 13.766C19.106 13.628 19.157 13.483 19.192 13.335C19.288 12.899 19.336 12.456 19.336 12.011L19.32 11.744C19.308 11.536 19.296 11.326 19.273 11.119ZM12.441 10.862L12.384 10.706C12.151 10.094 11.682 9.782 11.035 9.714C10.789 9.677 10.537 9.69 10.296 9.753C10.139 9.798 9.99601 9.883 9.88501 10.001C9.65401 10.25 9.67901 10.532 9.97201 10.706C10.143 10.805 10.327 10.88 10.518 10.928C10.727 10.985 10.939 11.033 11.151 11.081C11.347 11.126 11.543 11.171 11.737 11.222C12.207 11.333 12.655 11.516 13.066 11.765C13.508 12.034 13.791 12.494 13.827 13.003C13.902 13.518 13.754 14.042 13.419 14.446C13.164 14.739 12.832 14.959 12.46 15.081C11.961 15.245 11.434 15.311 10.909 15.274C10.291 15.241 9.68601 15.088 9.12901 14.824C9.11101 14.816 9.09201 14.809 9.07301 14.803C9.06101 14.799 9.04901 14.795 9.03701 14.791L8.80001 15.118H7.96301V12.852C8.10801 12.83 8.25401 12.824 8.40001 12.834C8.49701 12.832 8.59401 12.833 8.69601 12.833H8.84201L8.86701 12.898C8.88701 12.949 8.90501 12.998 8.92601 13.047C9.21801 13.726 9.70701 14.181 10.461 14.323C10.712 14.38 10.972 14.374 11.221 14.307C11.356 14.268 11.482 14.205 11.594 14.121C11.721 14.032 11.797 13.889 11.797 13.736C11.796 13.584 11.721 13.44 11.594 13.352C11.412 13.22 11.21 13.117 10.996 13.046C10.754 12.966 10.51 12.892 10.264 12.825C10.087 12.776 9.91001 12.724 9.73401 12.67C9.44301 12.584 9.15601 12.483 8.87501 12.367C8.34201 12.135 7.95101 11.757 7.83301 11.183C7.64301 10.267 8.03701 9.47 8.89501 9.027C9.26301 8.843 9.66701 8.74 10.079 8.724C10.862 8.667 11.646 8.807 12.358 9.128C12.374 9.136 12.392 9.142 12.415 9.151L12.457 9.166L12.631 8.882H13.511V10.997L13.317 10.999L13.014 11.002H12.492L12.441 10.862ZM3.49301 15.082V14.23H3.59601C3.67601 14.23 3.75401 14.231 3.83101 14.229C3.90901 14.229 3.98701 14.222 4.06401 14.21C4.18201 14.198 4.27601 14.108 4.28901 13.993C4.30601 13.904 4.31701 13.815 4.32201 13.725C4.32401 12.571 4.32401 11.417 4.32201 10.264C4.32101 9.856 4.22201 9.763 3.80501 9.755H3.60601L3.49301 9.756V8.908H7.18901C7.23801 9.183 7.24201 9.465 7.20101 9.742L7.15701 9.746L7.04101 9.757C7.00801 9.758 6.97501 9.758 6.94101 9.758H6.87101C6.49101 9.771 6.40101 9.851 6.40101 10.218C6.39701 11.399 6.39701 12.58 6.40101 13.762C6.40201 14.141 6.49201 14.222 6.88201 14.23C6.95101 14.231 7.02001 14.23 7.09401 14.23H7.21501V15.082H3.49301Z" fill="var(--fill-0, white)"/>
</g>
<defs>
<clipPath id="clip0_0_6">
<rect width="24.514" height="24" fill="white"/>
</clipPath>
</defs>
</svg>
